GidoleShapesAndStuff.sfdir
StartChar: numbersign
Encoding: 35 35 33
Width: 1000
VWidth: 0
Flags: H
LayerCount: 4
Back
SplineSet
55 247 m 5
 520 247 l 5
 520 190 l 5
 55 190 l 5
 55 247 l 5
90 477 m 5
 555 477 l 5
 555 420 l 5
 90 420 l 5
 90 477 l 5
450 667 m 5
 514 667 l 5
 374 0 l 5
 310 0 l 5
 450 667 l 5
236 667 m 5
 300 667 l 5
 160 0 l 5
 96 0 l 5
 236 667 l 5
EndSplineSet
Fore
Layer: 2
Layer: 3
EndChar
StartChar: dollar
Encoding: 36 36 32
Width: 1000
VWidth: 0
Flags: H
LayerCount: 4
Back
SplineSet
234 32 m 5
 298 32 l 5
 298 -70 l 5
 234 -70 l 5
 234 32 l 5
298 624 m 5
 234 624 l 5
 234 737 l 5
 298 737 l 5
 298 624 l 5
EndSplineSet
Fore
Layer: 2
SplineSet
239 612 m 5
 293 612 l 5
 293 -70 l 5
 239 -70 l 5
 239 612 l 5
293 624 m 5
 239 624 l 5
 239 737 l 5
 293 737 l 5
 293 624 l 5
EndSplineSet
Layer: 3
EndChar
StartChar: parenleft
Encoding: 285 40 29
Width: 1000
Flags: H
LayerCount: 4
Back
SplineSet
275 -191 m 5
 179 -191 80 -125 80 19 c 6
 80 586 l 6
 80 730 178 797 275 797 c 5
 275 739 l 5
 205 739 142 688 142 586 c 6
 142 19 l 6
 142 -82 215 -133 275 -133 c 5
 275 -191 l 5
EndSplineSet
Fore
Layer: 2
Layer: 3
EndChar
StartChar: plus
Encoding: 43 43 30
Width: 1000
Flags: H
LayerCount: 4
Back
SplineSet
230 71 m 5
 290 71 l 5
 290 431 l 5
 230 431 l 5
 230 71 l 5
80 279 m 5
 80 223 l 5
 440 223 l 5
 440 279 l 5
 80 279 l 5
EndSplineSet
Fore
Layer: 2
Layer: 3
EndChar
StartChar: comma
Encoding: 268 44 12
Width: 1000
Flags: H
LayerCount: 4
Back
SplineSet
101 96 m 4
 126 96 152 80 152 45 c 4
 152 39 151 22 143 -1 c 6
 98 -121 l 5
 53 -121 l 5
 86 13 l 5
 91 14 97 -3 101 -6 c 5
 76 -6 50 10 50 45 c 4
 50 80 76 96 101 96 c 4
EndSplineSet
Fore
Layer: 2
Layer: 3
EndChar
StartChar: zero
Encoding: 48 48 0
Width: 1000
Flags: H
LayerCount: 4
Back
SplineSet
260 64 m 4
 198.918945312 64 157.497070312 96.744140625 143.884765625 149 c 4
 139.599609375 165.451171875 139 180.700195312 139 199 c 5
 139 468 l 5
 139 486.299804688 139.599609375 501.548828125 143.884765625 518 c 4
 157.497070312 570.255859375 198.918945312 603 260 603 c 4
 321.081054688 603 362.502929688 570.255859375 376.115234375 518 c 4
 380.400390625 501.548828125 381 486.299804688 381 468 c 5
 381 199 l 5
 381 180.700195312 380.400103368 165.451059438 376.114924277 149.00000354 c 4
 362.503178932 96.7437083339 321.081054688 64 260 64 c 4
260 673 m 4
 364.076171875 673 436.268554688 613.103515625 451.842773438 518 c 4
 454.58984375 501.223632812 455 485.923828125 455 468 c 5
 455 199 l 5
 455 181.076171875 454.590003737 165.77655351 451.842738778 149.000006331 c 4
 436.268978538 53.8967209406 364.076074848 -6 260 -6 c 4
 155.923828125 -6 83.7314453125 53.896484375 68.1572265625 149 c 4
 65.41015625 165.776367188 65 181.076171875 65 199 c 5
 65 468 l 5
 65 485.923828125 65.41015625 501.223632812 68.1572265625 518 c 4
 83.7314453125 613.103515625 155.923828125 673 260 673 c 4
EndSplineSet
Fore
Layer: 2
Layer: 3
EndChar
StartChar: two
Encoding: 50 50 1
Width: 1000
Flags: H
LayerCount: 4
Back
SplineSet
243 378 m 6
 315 378 355 424 355 490 c 4xec
 355 554 317 603 243 603 c 5
 213 603 163 595 114 557 c 5
 71 613 l 5
 127 662 200 673 243 673 c 5
 363 673 429 593 429 490 c 4xec
 429 422 395 371 352 344 c 5
 401 315 438 259 438 186 c 4
 438 79 368 -6 243 -6 c 5
 182 -6 109 12 58 56 c 5
 105 109 l 5
 142 76 196 64 243 64 c 5
 323 64 362 116 362 186 c 4
 362 245 335 308 243 308 c 6xf2
 175 308 l 5
 175 378 l 5
 243 378 l 6
EndSplineSet
Fore
Layer: 2
Layer: 3
EndChar
StartChar: five
Encoding: 258 53 2
Width: 1000
Flags: H
LayerCount: 4
Back
SplineSet
256 -7 m 5xe8
 381 -7 451 78 451 185 c 4xe8
 451 258 414 314 365 343 c 5
 408 370 442 421 442 489 c 4
 442 592 376 672 256 672 c 5
 208 672 132 660 76 607 c 5
 120 552 l 5
 169 595 221 602 256 602 c 5
 330 602 368 553 368 489 c 4xf0
 368 423 328 377 256 377 c 6
 188 377 l 5
 188 307 l 5
 256 307 l 6
 349 307 377 244 377 185 c 4
 377 115 337 63 256 63 c 5
 209 63 151 76 114 112 c 5
 66 60 l 5
 117 11 195 -7 256 -7 c 5xe8
EndSplineSet
Fore
Layer: 2
SplineSet
380 205 m 4
 380 99 328 64 259 64 c 4
 190 64 138 99 138 205 c 4
 138 311 190 346 259 346 c 4
 328 346 380 311 380 205 c 4
198 406 m 5
 329 667 l 5
 252 667 l 5
 125 413 l 6
 73.79296875 310.586914062 64 266.663085938 64 205 c 4
 64 51 152 -6 259 -6 c 4
 366 -6 454 51 454 205 c 4
 454 359 366 416 259 416 c 4
 235.688476562 416 214.508789062 413.33203125 198 406 c 5
EndSplineSet
Layer: 3
EndChar
StartChar: nine
Encoding: 57 57 3
Width: 1000
Flags: H
LayerCount: 4
Back
SplineSet
139 462 m 4
 139 568 191 603 260 603 c 0
 329 603 381 568 381 462 c 4
 381 356 329 321 260 321 c 0
 191 321 139 356 139 462 c 4
455 462 m 4
 455 616 367 673 260 673 c 0
 153 673 65 616 65 462 c 4
 65 308 153 251 260 251 c 0
 367 251 455 308 455 462 c 4
EndSplineSet
Fore
Layer: 2
SplineSet
455 205 m 4
 455 51 367 -6 260 -6 c 5
 199 -6 121 12 70 61 c 5
 118 113 l 5
 155 77 213 64 260 64 c 5
 329 64 381 99 381 205 c 4
 381 311 381 278 381 324 c 29
 455 462 l 29
 455 412 455 359 455 205 c 4
139 462 m 4
 139 356 191 321 260 321 c 4
 329 321 381 356 381 462 c 4
 381 568 329 603 260 603 c 4
 191 603 139 568 139 462 c 4
381 285.076171875 m 5
 347.659179688 261.330078125 305.55078125 251 260 251 c 4
 153 251 65 308 65 462 c 4
 65 616 153 673 260 673 c 4
 367 673 455 616 455 462 c 4
 381 285.076171875 l 5
EndSplineSet
Layer: 3
SplineSet
139 462 m 4
 139 568 191 603 260 603 c 4
 329 603 381 568 381 462 c 4
 381 356 329 321 260 321 c 4
 191 321 139 356 139 462 c 4
321 261 m 5
 190 0 l 5
 267 0 l 5
 394 254 l 6
 445.20703125 356.413085938 455 400.336914062 455 462 c 4
 455 616 367 673 260 673 c 4
 153 673 65 616 65 462 c 4
 65 308 153 251 260 251 c 4
 283.311523438 251 304.491210938 253.66796875 321 261 c 5
EndSplineSet
EndChar
StartChar: question
Encoding: 63 63 14
Width: 1000
VWidth: 0
Flags: H
LayerCount: 4
Back
SplineSet
101 489 m 4
 101 552 154 603 220 603 c 4
 286 603 339 552 339 489 c 4
 339 426 286 375 220 375 c 4
 154 375 101 426 101 489 c 4
EndSplineSet
Fore
Layer: 2
SplineSet
191 180 m 29xd8
 191 180 191 217 191 237 c 4
 191 303 220 348 281 388 c 4
 315 410 339 438 339 490 c 4
 339 562 284 603 219 603 c 4
 171 603 131 580 103 547 c 5
 45 591 l 5
 86 642 154 673 219 673 c 4
 320 673 413 605 413 490 c 4
 413 418 380 368 329 336 c 4
 278 304 255 278 253 226 c 6
 251 180 l 13
 191 180 l 29xd8
223 96 m 4
 253 96 274 75 274 45 c 4
 274 15 253 -6 223 -6 c 4
 193 -6 172 15 172 45 c 4xe8
 172 75 193 96 223 96 c 4
EndSplineSet
Layer: 3
SplineSet
413 490 m 4xf0
 413 593 348 673 219 673 c 1
 171 673 95 661 39 608 c 1
 83 553 l 1
 132 596 184 603 219 603 c 1
 302 603 339 554 339 490 c 4
 339 426 302 377 219 377 c 5
 184 377 132 384 83 427 c 5
 39 372 l 5
 95 319 171 307 219 307 c 5
 348 307 413 387 413 490 c 4xf0
EndSplineSet
EndChar
StartChar: at
Encoding: 294 64 38
Width: 1000
VWidth: 0
Flags: H
LayerCount: 4
Back
SplineSet
535 229 m 5
 509 232 485 233 464 233 c 4
 402 233 313 225 313 143 c 4
 313 94 350 59 410 59 c 4
 459.50390625 59 509.6015625 85.7900390625 527.846679688 149 c 4
 534.779296875 173.01953125 535 193.240234375 535 229 c 5
789 45 m 6
 789 15 788 -9 782 -34 c 4
 760 -136 685 -190 554 -190 c 4
 310 -190 l 4
 179 -190 105 -136 82 -35 c 4
 76 -10 75 15 75 45 c 6
 75 247 l 6
 75 277 76 302 82 327 c 4
 105 428 179 482 310 482 c 4
 430 482 l 4
 497 482 574 456 597 352 c 4
 603 325 603 299 603 261 c 6
 603 0 l 5
 535 0 l 5
 535 52 l 5
 503 19 465 -6 402 -6 c 4
 315 -6 245 53 245 143 c 4
 245 250 331 294 456 294 c 4
 478 294 509 293 535 289 c 5
 535 299 535 326 527 352 c 4
 509 407 466 418 430 418 c 4
 310 418 l 4
 224 418 172 384 153 327 c 4
 145 302 143 279 143 247 c 6
 143 45 l 6
 143 13 145 -10 153 -35 c 4
 172 -92 224 -126 310 -126 c 4
 554 -126 l 4
 640 -126 692 -92 711 -35 c 4
 719 -11 721 13 721 45 c 6
 721 306 l 6
 721 529 611 608 416 608 c 6
 340 608 l 5
 340 674 l 5
 416 674 l 6
 648 674 789 577 789 306 c 6
 789 45 l 6
EndSplineSet
Fore
Layer: 2
SplineSet
313 140 m 4
 313 92 354 60 408 60 c 4
 470 60 533 106 533 204 c 6
 533 229 l 5
 507 231 483 232 462 232 c 4
 361 232 313 206 313 140 c 4
533 289 m 5
 533 381 490 418 416 418 c 6
 312 418 l 6
 222 418 149 372 149 254 c 6
 149 38 l 6
 149 -80 220 -122 310 -122 c 6
 556 -122 l 6
 646 -122 721 -80 721 38 c 6
 721 306 l 6
 721 529 611 608 416 608 c 6
 340 608 l 5
 340 674 l 5
 416 674 l 6
 648 674 789 577 789 306 c 6
 789 38 l 6
 789 -128 683 -190 556 -190 c 6
 310 -190 l 6
 183 -190 75 -128 75 38 c 6
 75 254 l 6
 75 420 185 482 312 482 c 6
 426 482 l 6
 522 482 601 427 601 289 c 6
 601 0 l 5
 533 0 l 5
 533 59 l 5
 501 15 452 -6 398 -6 c 4
 310 -6 243 55 243 146 c 4
 243 236.123046875 321.090820312 293.831054688 459.567382812 293.831054688 c 4
 482.42578125 293.831054688 506.9296875 292.258789062 533 289 c 5
EndSplineSet
Layer: 3
EndChar
StartChar: C
Encoding: 260 67 4
Width: 1000
VWidth: 0
Flags: H
LayerCount: 4
Back
SplineSet
525 438 m 2
 525 592.014648438 440.955833047 673 290 673 c 0
 242 673 166 661 110 608 c 1
 154 553 l 1
 203 596 255 603 290 603 c 0
 398.449893623 603 451 546.599609375 451 438 c 2
 461 229 l 6
 461 120.385742188 398.47355767 64 290 64 c 0
 243 64 185 77 148 113 c 1
 100 61 l 1
 151 12 229 -6 290 -6 c 0
 440.936834463 -6 535 75.0068359375 535 229 c 6
 525 438 l 2
EndSplineSet
Fore
Layer: 2
Layer: 3
Substitution2: "'salt' Stylistic Alternatives lookup 0-1" C.alt
EndChar
StartChar: D
Encoding: 68 68 6
Width: 1000
VWidth: 0
Flags: H
LayerCount: 4
Back
Fore
Layer: 2
SplineSet
505 468 m 4
 505 199 l 4
 505 81 436 0 290 0 c 14
 75 0 l 5
 75 667 l 5
 290 667 l 22
 436 667 505 586 505 468 c 4
431 199 m 4
 431 468 l 4
 431 549 391 597 290 597 c 6
 149 597 l 5
 149 70 l 5
 290 70 l 6
 391 70 431 118 431 199 c 4
EndSplineSet
Layer: 3
EndChar
StartChar: J
Encoding: 74 74 7
Width: 1000
VWidth: 0
Flags: H
LayerCount: 4
Back
Fore
Layer: 2
SplineSet
396 194 m 22
 396 48 298 -6 201 -6 c 5
 104 -6 6 48 6 194 c 14
 6 473 l 22
 6 619 104 673 201 673 c 5
 298 673 396 619 396 473 c 14
 396 194 l 22
80 194 m 22
 80 97 140 64 201 64 c 5
 262 64 322 97 322 194 c 14
 322 473 l 22
 322 570 262 603 201 603 c 5
 140 603 80 570 80 473 c 14
 80 194 l 22
EndSplineSet
Layer: 3
Substitution2: "'salt' Stylistic Alternatives lookup 0-1" J.alt
EndChar
StartChar: O
Encoding: 261 79 5
Width: 1000
VWidth: 0
Flags: H
LayerCount: 4
Back
SplineSet
461 438 m 5
 461 469.7890625 459.02734375 494.278320312 451.135742188 518 c 4
 432.329101562 574.534179688 386.2109375 603 300 603 c 4
 213.7890625 603 167.670898438 574.534179688 148.864257812 518 c 4
 140.657226562 493.329101562 139 469.7890625 139 438 c 5
 139 229 l 5
 139 197.2109375 140.657373657 173.670677028 148.864248617 148.999900725 c 4
 167.670618239 92.465867951 213.7890625 64 300 64 c 4
 386.2109375 64 432.329101562 92.4658203125 451.135742188 149 c 4
 459.02734375 172.721679688 461 197.2109375 461 229 c 5
 461 438 l 5
535 438 m 5
 535 467.981445312 533.66015625 491.596679688 528.12109375 517 c 4
 505.9453125 618.709960938 431.018554688 673 300 673 c 4
 169.37890625 673 94.505859375 619.076171875 72.0986328125 518 c 4
 66.470703125 492.616210938 65 468.37890625 65 438 c 5
 65 229 l 5
 65 198.62109375 66.4707379973 174.383675383 72.0981679597 148.999979198 c 4
 94.5061611907 47.9240535805 169.37890625 -6 300 -6 c 4
 431.018554688 -6 505.9453125 48.2900390625 528.12109375 150 c 4
 533.66015625 175.403320312 535 199.018554688 535 229 c 5
 535 438 l 5
EndSplineSet
Fore
Layer: 2
Layer: 3
EndChar
StartChar: R
Encoding: 82 82 10
Width: 1000
VWidth: 0
Flags: H
LayerCount: 4
Back
SplineSet
272 327 m 4
 352 327 403 366 403 462 c 4
 403 558 352 597 272 597 c 4
 149 597 l 5
 149 327 l 5
 272 327 l 4
272 667 m 4
 390 667 477 606 477 462 c 4
 477 318 390 257 272 257 c 4
 148 257 l 5
 148 0 l 5
 75 0 l 5
 75 667 l 5
 272 667 l 4
370.70703125 275.33984375 m 5
 487 0 l 5
 409 0 l 5
 300.157226562 258.629882812 l 5
 370.70703125 275.33984375 l 5
EndSplineSet
Fore
Layer: 2
Layer: 3
EndChar
StartChar: S
Encoding: 83 83 11
Width: 1000
VWidth: 0
Flags: H
LayerCount: 4
Back
SplineSet
256 673 m 5
 304 673 380 661 436 608 c 5
 392 553 l 5
 343 596 291 603 256 603 c 1029
EndSplineSet
Fore
Layer: 2
SplineSet
256 310 m 5xf2
 148 310 118 246 118 186 c 0
 118 115 160 62 256 62 c 4
 352 62 394 115 394 186 c 4
 394 246 364 310 256 310 c 5xf2
256 605 m 4
 166 605 127 555 127 490 c 0
 127 423 168 376 256 376 c 5
 344 376 385 423 385 490 c 4xec
 385 555 346 605 256 605 c 4
256 673 m 4
 391 673 457 593 457 490 c 4xec
 457 422 423 371 380 344 c 5
 429 315 466 259 466 186 c 4
 466 79 396 -6 256 -6 c 4
 116 -6 46 79 46 186 c 0xf2
 46 259 83 315 132 344 c 1
 89 371 55 422 55 490 c 0
 55 593 121 673 256 673 c 4
EndSplineSet
Layer: 3
Substitution2: "'salt' Stylistic Alternatives lookup 0-1" S.alt
EndChar
StartChar: asciicircum
Encoding: 94 94 36
Width: 1000
Flags: H
LayerCount: 4
Back
Fore
Layer: 2
SplineSet
179 619 m 5
 100 546 l 5
 30 546 l 5
 161 667 l 5
 197 667 l 5
 328 546 l 5
 258 546 l 5
 179 619 l 5
EndSplineSet
Layer: 3
EndChar
StartChar: b
Encoding: 275 98 19
Width: 1000
VWidth: 0
Flags: H
LayerCount: 4
Back
SplineSet
250 417 m 4
 174 417 135 366.431640625 135 288 c 14
 135 189 l 22
 135 110.568359375 174 60 250 60 c 4
 326 60 365 110.568359375 365 189 c 14
 365 288 l 22
 365 366.431640625 326 417 250 417 c 4
260 483 m 4
 366 483 435 406 435 288 c 14
 435 189 l 22
 435 71 366 -6 260 -6 c 4
 142 -6 95 71 95 189 c 14
 95 288 l 22
 95 406 142 483 260 483 c 4
65 667 m 5
 135 667 l 5
 135 0 l 5
 65 0 l 5
 65 667 l 5
EndSplineSet
Fore
Layer: 2
SplineSet
250 417 m 4
 174 417 135 366.431640625 135 288 c 14
 135 189 l 22
 135 110.568359375 174 60 250 60 c 4
 326 60 365 110.568359375 365 189 c 14
 365 288 l 22
 365 366.431640625 326 417 250 417 c 4
260 483 m 4
 366 483 435 406 435 288 c 14
 435 189 l 22
 435 71 366 -6 260 -6 c 4
 142 -6 95 71 95 189 c 14
 95 288 l 22
 95 406 142 483 260 483 c 4
65 667 m 5
 135 667 l 5
 135 0 l 5
 65 0 l 5
 65 667 l 5
EndSplineSet
Layer: 3
SplineSet
255 417 m 4
 202.890744787 417 165.831228316 393.220230119 147.671099671 353.000003521 c 4
 135.325668913 325.657905222 135 297.655273438 135 258 c 14
 135 219 l 22
 135 178.897460938 135.544283685 150.233327851 148.127846159 123.000003495 c 4
 166.436929557 83.375516557 203.324008963 60 255 60 c 4
 306.675987998 60 343.563067212 83.3755095671 361.87215061 122.999996505 c 4
 374.455713084 150.233320861 375 178.897460938 375 219 c 14
 375 258 l 22
 375 297.655273438 374.674334265 325.65789818 362.328903507 352.999996479 c 4
 344.168774862 393.220223077 307.109258254 417 255 417 c 4
265 483 m 4
 350.008639598 483 414.451477198 433.482690201 436.620101886 353.000005855 c 4
 444.58678541 324.077143728 445 296.368164062 445 258 c 14
 445 219 l 22
 445 180.239257812 444.459845742 151.880758228 436.341832363 123.000005835 c 4
 413.887407356 43.1158447165 349.655978146 -6 265 -6 c 4
 147 -6 95 71 95 189 c 14
 95 288 l 22
 95 406 147 483 265 483 c 4
65 667 m 5
 135 667 l 5
 135 0 l 5
 65 0 l 5
 65 667 l 5
EndSplineSet
Substitution2: "'salt' Stylistic Alternatives lookup 0-1" b.alt
EndChar
StartChar: c
Encoding: 99 99 18
Width: 1000
VWidth: 0
Flags: H
LayerCount: 4
Back
SplineSet
445 194 m 22
 445 48 347 -6 250 -6 c 5
 153 -6 55 48 55 194 c 14
 55 283 l 22
 55 429 153 483 250 483 c 5
 347 483 445 429 445 283 c 14
 445 194 l 22
125 194 m 22
 125 96 188 60 250 60 c 5
 312 60 375 96 375 194 c 14
 375 283 l 22
 375 381 312 417 250 417 c 5
 188 417 125 381 125 283 c 14
 125 194 l 22
EndSplineSet
Fore
Layer: 2
Layer: 3
Substitution2: "'salt' Stylistic Alternatives lookup 0-1" c.alt
EndChar
StartChar: e
Encoding: 101 101 21
Width: 1000
VWidth: 0
Flags: H
LayerCount: 4
Back
SplineSet
245 -6 m 4
 150.368164062 -6 85.2861328125 43.517578125 63.2685546875 124 c 4
 55.3525390625 152.936523438 55 180.631835938 55 219 c 14
 55 258 l 22
 55 296.368164062 55.3526620146 324.063271591 63.2688535136 352.999994145 c 4
 85.2864208027 433.482665141 150.367736235 483 245 483 c 4
 339.632259175 483 404.713575988 433.482676851 426.731143278 353.000005855 c 4
 434.647334777 324.063283302 435 296.368164062 435 258 c 14
 435 218 l 21
 367 218 l 13
 367 258 l 22
 367 297.655273438 366.674804688 325.658203125 354.329101562 353 c 4
 336.168945312 393.220703125 297.109375 419 245 419 c 4
 192.890625 419 153.831054688 393.220703125 135.670898438 353 c 4
 123.325195312 325.658203125 123 297.655273438 123 258 c 14
 123 219 l 22
 123 179.344726562 123.325195312 151.341796875 135.670898438 124 c 4
 153.831054688 83.779296875 192.890625 58 245 58 c 1028
387 218 m 29
 111 218 l 5
 111 282 l 5
 387 282 l 5
 387 218 l 29
EndSplineSet
Fore
Layer: 2
Layer: 3
Substitution2: "'salt' Stylistic Alternatives lookup 0-1" e.alt
EndChar
StartChar: f
Encoding: 102 102 24
Width: 1000
VWidth: 0
Flags: H
LayerCount: 4
Back
SplineSet
195 521 m 4
 195 574.048780488 227 608 277 608 c 4
 327 608 360 574.048780488 360 521 c 0
 360 467.987951807 327 433 277 433 c 0
 227 433 195 467.987951807 195 521 c 4
125 521 m 4
 125 613 185 673 277 673 c 4
 369 673 430 613 430 521 c 0
 430 429 369 368 277 368 c 0
 185 368 125 429 125 521 c 4
EndSplineSet
Fore
Layer: 2
Layer: 3
Substitution2: "'salt' Stylistic Alternatives lookup 0-1" f.alt
EndChar
StartChar: g
Encoding: 279 103 23
Width: 1000
VWidth: 0
Flags: H
LayerCount: 4
Back
SplineSet
355 25 m 2
 355 1 355 -18 350 -35 c 1024
422 -35 m 0
 425 -17 425 1 425 25 c 1026
EndSplineSet
Fore
Layer: 2
Layer: 3
Substitution2: "'salt' Stylistic Alternatives lookup 0-1" g.alt
EndChar
StartChar: h
Encoding: 276 104 20
Width: 1000
VWidth: 0
Flags: H
LayerCount: 4
Back
SplineSet
255 483 m 4
 340.008639598 483 398.021604092 433.483134956 417.641276112 353.000005855 c 4
 424.746420494 323.853532255 425 296.368164062 425 258 c 14
 425 0 l 21
 355 0 l 13
 355 258 l 22
 355 297.655273438 354.922920066 325.872119585 344.672149596 352.999996479 c 4
 329.472731314 393.224089805 297.109258254 417 245 417 c 4
 192.890744787 417 160.527271346 393.224096846 145.327853064 353.000003521 c 4
 135.077082594 325.872126627 135 297.655273438 135 258 c 13
 95 285 l 21
 95 403 140 483 255 483 c 4
65 667 m 5
 135 667 l 5
 135 0 l 5
 65 0 l 5
 65 667 l 5
EndSplineSet
Fore
Layer: 2
SplineSet
95 285 m 21
 95 403 140 483 255 483 c 4
 340.008639598 483 398.021604092 433.483134956 417.641276112 353.000005855 c 4
 424.746420494 323.853532255 425 301.368164062 425 278 c 14
 425 0 l 21
 355 0 l 13
 355 278 l 22
 355 302.655273438 354.922920066 325.872119585 344.672149596 352.999996479 c 4
 329.472731314 393.224089805 297.109258254 417 245 417 c 4
 192.890744787 417 160.527271346 393.224096846 145.327853064 353.000003521 c 4
 135.077082594 325.872126627 135 302.655273438 135 278 c 13
 95 285 l 21
65 667 m 5
 135 667 l 5
 135 0 l 5
 65 0 l 5
 65 667 l 5
EndSplineSet
Layer: 3
Substitution2: "'salt' Stylistic Alternatives lookup 0-1" h.alt
EndChar
StartChar: m
Encoding: 109 109 15
Width: 1000
VWidth: 0
Flags: H
CounterMasks: 1 38
LayerCount: 4
Back
SplineSet
625 0 m 13xe3
 625 258 l 22
 625 297.655273438 624.8671875 326.494140625 615.84375 353 c 4
 602.147460938 393.232421875 572.109375 417 520 417 c 4
 467.890625 417 437.852539062 393.232421875 424.15625 353 c 4
 415.1328125 326.494140625 415 297.655273438 415 258 c 13xe5
 345 288 l 21
 345 406 412 483 530 483 c 4
 615.008789062 483 669.72265625 433.466796875 688.15234375 353 c 4
 694.625976562 324.731445312 695 296.368164062 695 258 c 14
 695 0 l 21
 625 0 l 13xe3
345 0 m 13
 345 258 l 22
 345 297.655273438 344.867212108 326.493817196 335.843772641 352.999996479 c 4
 322.147480594 393.232590034 292.109258254 417 240 417 c 4
 187.890744787 417 157.852521808 393.232597076 144.15622976 353.000003521 c 4
 135.132790294 326.493824237 135 297.655273438 135 258 c 13xf5
 95 282 l 21xe9
 95 400 138 483 250 483 c 4
 335.008639598 483 384.72265625 433.466796875 403.15234375 353 c 4
 409.625976562 324.731445312 415 296.368164062 415 258 c 14
 415 0 l 21
 345 0 l 13
65 477 m 5
 135 477 l 5
 135 0 l 5
 65 0 l 5
 65 477 l 5
EndSplineSet
Fore
Layer: 2
SplineSet
413 298 m 4
 413 366.91796875 456.64453125 417 518 417 c 0
 579.35546875 417 623.119140625 366.91796875 623.119140625 298 c 0
 623.119140625 229.08203125 579.415039062 179.494140625 518.059570312 179.494140625 c 0
 456.704101562 179.494140625 413 229.08203125 413 298 c 4
EndSplineSet
Layer: 3
SplineSet
975 0 m 13
 975 298 l 6
 975 438 877 483 810 483 c 4
 723 483 633 438 633 299 c 5
 633 287.408203125 662.408203125 278 674 278 c 5
 685.591796875 278 695 286.408203125 695 298 c 5
 695 392 753 417 800 417 c 4
 847 417 905 391 905 299 c 6
 905 0 l 21
 975 0 l 13
695 0 m 5
 695 298 l 5
 685 298 l 5
 685 438 597 483 530 483 c 4
 449 483 373 398 373 269 c 5
 373 257.408203125 382.408203125 258 394 258 c 4
 405.591796875 258 415 266.408203125 415 278 c 5
 415 382 473 417 520 417 c 4
 567 417 625 391 625 299 c 13
 625 0 l 21
 695 0 l 5
415 477 m 5
 345 477 l 5
 345 0 l 5
 415 0 l 5
 415 477 l 5
EndSplineSet
Substitution2: "'salt' Stylistic Alternatives lookup 0-1" m.alt
EndChar
StartChar: n
Encoding: 110 110 22
Width: 1000
VWidth: 0
Flags: H
LayerCount: 4
Back
SplineSet
785 0 m 5
 715 0 l 5
 715 477 l 5
 785 477 l 5
 785 0 l 5
745 283 m 21
 745 429 818 483 915 483 c 5
 997 483 1095 431 1095 283 c 14
 1095 0 l 21
 1025 0 l 13
 1025 283 l 22
 1025 381 967 417 905 417 c 5
 843 417 785 381 785 283 c 13
 745 283 l 21
EndSplineSet
Fore
Layer: 2
Layer: 3
Substitution2: "'salt' Stylistic Alternatives lookup 0-1" n.alt
EndChar
StartChar: o
Encoding: 111 111 17
Width: 1000
VWidth: 0
Flags: H
LayerCount: 4
Back
SplineSet
245 417 m 4
 169 417 125 366.431640625 125 288 c 14
 125 189 l 22
 125 110.568359375 169 60 245 60 c 4
 321 60 365 110.568359375 365 189 c 14
 365 288 l 22
 365 366.431640625 321 417 245 417 c 4
245 483 m 4
 363 483 435 406 435 288 c 14
 435 189 l 22
 435 71 363 -6 245 -6 c 4
 127 -6 55 71 55 189 c 14
 55 288 l 22
 55 406 127 483 245 483 c 4
EndSplineSet
Fore
Layer: 2
SplineSet
55 288 m 4
 55 406 132 483 250 483 c 4
 368 483 445 406 445 288 c 4
 445 189 l 4
 445 71 368 -6 250 -6 c 4
 132 -6 55 71 55 189 c 4
 55 288 l 4
125 288 m 4
 125 366 174 417 250 417 c 4
 326 417 375 366 375 288 c 4
 375 189 l 4
 375 111 326 60 250 60 c 4
 174 60 125 111 125 189 c 4
 125 288 l 4
EndSplineSet
Layer: 3
EndChar
StartChar: r
Encoding: 281 114 25
Width: 1000
VWidth: 0
Flags: H
LayerCount: 4
Back
SplineSet
313.556640625 410.02734375 m 5
 297.797851562 414.534179688 279.814453125 417 260 417 c 4
 197.921875 417 153.8125 382.982421875 139.797851562 328 c 4
 135.3515625 310.557617188 135 292.288085938 135 268 c 6
 135 0 l 5
 65 0 l 5
 65 477 l 5
 135 477 l 5
 135 419.415039062 l 5
 165.298828125 459.82421875 211.481445312 483 270 483 c 4
 288.7265625 483 306.28125 480.552734375 323 477 c 5
 313.556640625 410.02734375 l 5
EndSplineSet
Fore
Layer: 2
SplineSet
313 414 m 5
 300.276367188 415.604492188 278.1640625 417 260 417 c 4
 215.431640625 417 170.366210938 400.975585938 148.518554688 350 c 4
 136.305664062 321.506835938 135 285.770507812 135 244 c 6
 135 0 l 5
 65 0 l 5
 65 477 l 5
 135 477 l 5
 135 425 l 5
 167 466 216 483 270 483 c 4
 286.400390625 483 309.900390625 479.893554688 323 477 c 5
 313 414 l 5
EndSplineSet
Layer: 3
Substitution2: "'salt' Stylistic Alternatives lookup 0-1" r.alt
EndChar
StartChar: s
Encoding: 115 115 16
Width: 1000
VWidth: 0
Flags: H
LayerCount: 4
Back
SplineSet
363.157226562 442.690429688 m 5
 415.713867188 411.048828125 454.794921875 359.459960938 454.999023438 283.341796875 c 2
 455 194.5 l 2
 454.999023438 50.62890625 316.649414062 -6 210 -6 c 4
 155.642578125 -6 93.048828125 8.7109375 44.736328125 42.1865234375 c 5
 -1.7392578125 74.3896484375 -35 123.958007812 -35 194.5 c 2
 -35 282.5 l 2
 -34.9990234375 426.37109375 103.350585938 483 210 483 c 4
 259.907226562 483 316.779296875 470.612304688 363.157226562 442.690429688 c 5
320.466796875 389.166992188 m 5
 286.400390625 408.734375 244.60546875 417 210 417 c 4
 138.166992188 417 35.248046875 381.44140625 35.0009765625 283.078125 c 2
 35 194.5 l 2
 35 149.14453125 56.732421875 117.081054688 87.2060546875 95.6669921875 c 5
 123.087890625 70.4501953125 171.08984375 60 210 60 c 4
 281.833007812 60 384.751953125 95.55859375 384.999023438 193.921875 c 2
 385 282.5 l 2
 384.999023438 333.764648438 357.235351562 368.048828125 320.466796875 389.166992188 c 5
EndSplineSet
Fore
Layer: 2
SplineSet
210 449.984375 m 20
 147 449.984375 82 422 82 349 c 4
 82 278 146.982421875 261.107421875 210.010742188 250 c 4
 275.559570312 238.44921875 348 215 348 137 c 4
 348 58 279 26.9892578125 210 26.9892578125 c 1036
EndSplineSet
Layer: 3
SplineSet
210 483 m 4
 316.4609375 483 454.615234375 426.630859375 454.999023438 283.341796875 c 6
 455 194.5 l 6
 454.999023438 50.62890625 316.649414062 -6 210 -6 c 4
 103.350585938 -6 -34.9990234375 50.62890625 -35 194.5 c 6
 -35 282.5 l 6
 -34.9990234375 426.37109375 103.350585938 483 210 483 c 4
210 417 m 4
 138.166992188 417 35.248046875 381.44140625 35.0009765625 283.078125 c 6
 35 194.5 l 6
 35.0009765625 95.73828125 138.044921875 60 210 60 c 4
 281.833007812 60 384.751953125 95.55859375 384.999023438 193.921875 c 6
 385 282.5 l 6
 384.999023438 381.26171875 281.955078125 417 210 417 c 4
43 40 m 25
 363 442.984375 l 1049
EndSplineSet
Substitution2: "'salt' Stylistic Alternatives lookup 0-1" s.alt
EndChar
StartChar: t
Encoding: 116 116 26
Width: 1000
VWidth: 0
Flags: H
LayerCount: 4
Back
Fore
Layer: 2
SplineSet
195 127 m 4
 195 167.451612903 219 193 257 193 c 4
 295 193 320 167.451612903 320 127 c 4
 320 86.5873015873 295 60 257 60 c 4
 219 60 195 86.5873015873 195 127 c 4
125 127 m 4
 125 207 177 259 257 259 c 4
 337 259 390 207 390 127 c 4
 390 47 337 -6 257 -6 c 4
 177 -6 125 47 125 127 c 4
EndSplineSet
Layer: 3
SplineSet
45 477 m 5
 125 477 l 5
 125 581 l 5
 195 581 l 5
 195 477 l 5
 305 477 l 5
 305 415 l 5
 195 415 l 5
 195 130 l 6
 195 85 220 66 245 66 c 6
 325 66 l 5
 325 0 l 5
 245 0 l 6
 186 0 125 41 125 130 c 6
 125 415 l 5
 45 415 l 5
 45 477 l 5
EndSplineSet
Substitution2: "'salt' Stylistic Alternatives lookup 0-1" t.alt
EndChar
StartChar: y
Encoding: 283 121 27
Width: 1000
Flags: H
LayerCount: 4
Back
SplineSet
30 477 m 5
 104 477 l 5
 239 92 l 5
 373 477 l 5
 447 477 l 5
 269 0 l 5
 208 0 l 5
 30 477 l 5
EndSplineSet
Fore
Layer: 2
Layer: 3
EndChar
StartChar: braceleft
Encoding: 284 123 28
Width: 1000
VWidth: 0
Flags: H
LayerCount: 4
Back
SplineSet
284 -74 m 5
 270 -74 l 6
 220 -74 202 -44 202 20 c 6
 202 213 l 6
 202 322 123 368 64 368 c 6
 60 368 l 5
 60 318 l 5
 64 318 l 6
 109 318 140 287 140 223 c 6
 140 20 l 6
 140 -89 191 -130 270 -130 c 6
 284 -130 l 5
 284 -74 l 5
284 797 m 5
 270 797 l 6
 191 797 140 756 140 647 c 6
 140 453 l 6
 140 389 109 368 64 368 c 6
 60 368 l 5
 60 318 l 5
 64 318 l 6
 123 318 202 354 202 463 c 6
 202 647 l 6
 202 711 220 741 270 741 c 6
 284 741 l 5
 284 797 l 5
EndSplineSet
Fore
Layer: 2
Layer: 3
EndChar
StartChar: asciitilde
Encoding: 126 126 42
Width: 1000
VWidth: 0
Flags: H
LayerCount: 4
Back
SplineSet
64.5 209 m 5
 23.5 261 l 5
 115.5 335 206.5 325 279.5 280 c 4
 346.5 238 385.5 237 455.5 293 c 5
 496.5 241 l 5
 405.5 169 325.5 169 240.5 222 c 4
 184.5 257 131.5 263 64.5 209 c 5
EndSplineSet
Fore
Layer: 2
SplineSet
83.54296875 234.081054688 m 17
 148.815429688 297.759765625 207.5625 289.797851562 259.778320312 250 c 0
 321.6640625 202.83203125 370.741210938 202.240234375 436.014648438 265.918945312 c 1024
EndSplineSet
Layer: 3
EndChar
StartChar: cent
Encoding: 302 162 46
Width: 1000
VWidth: 0
Flags: H
LayerCount: 4
Back
SplineSet
279 563 m 5
 329 563 l 5
 329 -86 l 5
 279 -86 l 5
 279 563 l 5
EndSplineSet
Fore
Layer: 2
SplineSet
64 289 m 0
 64 407 141 484 279 484 c 4
 417 484 494 407 494 289 c 4
 494 171 417 94 279 94 c 4
 141 94 64 171 64 289 c 0
EndSplineSet
Layer: 3
SplineSet
279 483 m 5
 329 483 l 5
 393 483 440 467 472 442 c 5
 436 386 l 5
 411 405 375 417 329 417 c 5
 279 417 l 5
 216.890625 417 179.831054688 393.220703125 161.670898438 353 c 4
 149.325195312 325.658203125 149 297.655273438 149 258 c 14
 149 219 l 22
 149 179.344726562 149.325195312 151.341796875 161.670898438 124 c 4
 179.831054688 83.779296875 216.890625 60 279 60 c 5
 329 60 l 5
 378 60 415 73 441 95 c 5
 477 39 l 5
 444 11 396 -6 329 -6 c 5
 279 -6 l 5
 174.368164062 -6 109.286132812 43.517578125 87.2685546875 124 c 4
 79.3525390625 152.936523438 79 180.631835938 79 219 c 14
 79 258 l 22
 79 296.368164062 79.3525390625 324.063476562 87.2685546875 353 c 4
 109.286132812 433.482421875 174.368164062 483 279 483 c 5
EndSplineSet
EndChar
StartChar: section
Encoding: 167 167 37
Width: 1000
VWidth: 0
Flags: H
LayerCount: 4
Back
SplineSet
231 673 m 4
 307 673 364 643 389 626 c 5
 351 571 l 5
 316 597 269 608 231 608 c 4
 176 608 138 583 138 541 c 4
 138 502 160 485 237 471 c 4
 320 455 404 421 404 328 c 4
 404 241 342 202 290 202 c 4
 205 202 183 256 162 272 c 5
 197 258 l 5
 226 235 243 237 290 237 c 4
 318 237 334 276 334 318 c 4
 334 369 301 392 225 406 c 4
 142 421 68 450 68 541 c 4
 68 632 158 673 231 673 c 4
181 465 m 4
 257 465 313 430 338 413 c 5
 351 373 l 5
 316 399 219 430 181 430 c 4
 156 430 138 395 138 353 c 4
 138 304 160 287 237 273 c 4
 320 257 404 223 404 130 c 4
 404 43 332 -6 230 -6 c 4
 145 -6 86 31 65 47 c 5
 107 100 l 5
 136 77 183 59 230 59 c 4
 308 59 334 88 334 130 c 4
 334 171 301 194 225 208 c 4
 142 223 68 252 68 343 c 4
 68 434 138 465 181 465 c 4
EndSplineSet
Fore
Layer: 2
Layer: 3
EndChar
StartChar: mu
Encoding: 296 181 40
Width: 1000
VWidth: 0
Flags: H
LayerCount: 4
Back
SplineSet
145 204 m 5
 145 106 203 60 265 60 c 4
 327 60 385 106 385 204 c 6
 385 477 l 5
 455 477 l 29
 435 204 l 21
 435 60 361 -6 265 -6 c 4
 178 -6 105 61 105 204 c 5
 145 204 l 5
145 477 m 5
 145 -185 l 5
 75 -185 l 5
 75 477 l 5
 145 477 l 5
395 124 m 5
 396 124 l 5
 455 477 l 5
 455 124 l 6
 455 79 480 60 505 60 c 6
 515 60 l 5
 515 -6 l 5
 505 -6 l 6
 446 -6 395 35 395 124 c 5
EndSplineSet
Fore
Layer: 2
Layer: 3
EndChar
StartChar: cedilla
Encoding: 300 184 44
Width: 1000
Flags: H
LayerCount: 4
Back
SplineSet
167 0 m 5xd0
 221 0 l 5
 181 -79 l 5xd0
 127 -79 l 5xb0
 167 0 l 5xd0
77 -140 m 5
 98 -147 118 -151 157 -151 c 4
 202 -151 234 -144 234 -116 c 4
 234 -86 201 -79 167 -79 c 5xd0
 167 -45 l 5xb0
 244 -45 292 -62 292 -116 c 4
 292 -179 244 -206 157 -206 c 4
 105 -206 77 -201 50 -191 c 5
 77 -140 l 5
EndSplineSet
Fore
Layer: 2
Layer: 3
EndChar
StartChar: questiondown
Encoding: 191 191 31
Width: 1000
VWidth: 0
Flags: H
LayerCount: 4
Back
SplineSet
254 -191 m 1xd8
 141 -191 60 -125 60 -8 c 0
 60 64 91 114 142 146 c 0
 193 178 218 204 220 256 c 2
 222 302 l 9
 280 302 l 29
 280 302 282 265 282 245 c 0
 282 179 253 134 192 97 c 0
 157 76 134 44 134 -8 c 0
 134 -80 179 -121 254 -121 c 1
 289 -121 341 -114 390 -71 c 1
 434 -126 l 1
 378 -179 302 -191 254 -191 c 1xd8
250 386 m 0
 220 386 199 407 199 437 c 0
 199 467 220 488 250 488 c 0
 280 488 301 467 301 437 c 0xe8
 301 407 280 386 250 386 c 0
EndSplineSet
Fore
Layer: 2
Layer: 3
EndChar
StartChar: Eth
Encoding: 303 208 47
Width: 1000
VWidth: 0
Flags: H
LayerCount: 4
Back
SplineSet
55 373 m 5
 328 373 l 5
 328 313 l 5
 55 313 l 5
 55 373 l 5
201 597 m 5
 201 70 l 5
 321 70 l 22
 411 70 482 110 482 228 c 6
 482 440 l 6
 482 557 411 597 321 597 c 14
 201 597 l 5
127 667 m 5
 321 667 l 6
 448 667 556 605 556 440 c 6
 556 228 l 6
 556 62 448 0 321 0 c 14
 127 0 l 5
 127 667 l 5
EndSplineSet
Fore
Layer: 2
Layer: 3
EndChar
StartChar: Oslash
Encoding: 216 216 13
Width: 1000
VWidth: 0
Flags: H
LayerCount: 4
Back
SplineSet
541 693 m 5
 123 -27 l 5
 60 -27 l 5
 478 693 l 5
 541 693 l 5
EndSplineSet
Fore
Layer: 2
Layer: 3
SplineSet
535 438 m 6
 535 229 l 6
 535 199 534 175 528 150 c 4
 506 48 431 -6 300 -6 c 4
 239.690379839 -6 193.461914062 8.4453125 156.728515625 30.65234375 c 5
 123 -27 l 5
 60 -27 l 5
 114.556640625 66.5283203125 l 5
 95.154296875 89.5595703125 79.7110255103 115.138540151 72 149 c 4
 66 174 65 199 65 229 c 6
 65 438 l 6
 65 468 66 493 72 518 c 4
 95 619 169 673 300 673 c 4
 360.786551517 673 407.515625 658.373046875 444.486328125 635.71875 c 5
 478 693 l 5
 541 693 l 5
 486.45703125 599.495117188 l 5
 505.551757812 576.432617188 520.696541434 550.861489717 528 517 c 4
 534 492 535 468 535 438 c 6
461 438 m 6
 461 470 459 494 451 518 c 4
 449.610476785 522.168569644 448.076546594 526.182035498 446.393124554 530.040788706 c 6
 191.122921098 90.3409167233 l 5
 216.461613881 72.7223504297 252.000556633 64 300 64 c 4
 386 64 432 92 451 149 c 4
 459 173 461 197 461 229 c 6
 461 438 l 6
154.291686661 135.416302383 m 6
 409.998723234 575.868614183 l 5
 384.590717802 594.016779224 348.71194517 603 300 603 c 4
 214 603 168 575 149 518 c 4
 141 493 139 470 139 438 c 6
 139 229 l 6
 139 197 141 174 149 149 c 4
 150.575722145 144.272833564 152.337145974 139.745124491 154.291686661 135.416302383 c 6
EndSplineSet
EndChar
StartChar: germandbls
Encoding: 304 223 48
Width: 1000
VWidth: 0
Flags: H
LayerCount: 4
Back
Fore
Layer: 2
SplineSet
270 311 m 1xf2
 177 311 147 247 147 187 c 0
 147 116 189 66 270 66 c 4
 351 66 393 118 393 189 c 4
 393 249 363 311 270 311 c 1xf2
270 602 m 0
 195 602 156 554 156 489 c 0
 156 422 197 376 270 376 c 1
 343 376 386 422 386 489 c 0xec
 386 554 345 602 270 602 c 0
270 668 m 0
 390 668 456 591 456 488 c 0xec
 456 420 422 372 379 345 c 1
 428 316 465 262 465 189 c 4
 465 82 395 0 270 0 c 4
 145 0 75 80 75 187 c 0xf2
 75 260 112 316 161 345 c 1
 118 372 84 422 84 490 c 0
 84 593 150 668 270 668 c 0
EndSplineSet
Layer: 3
SplineSet
250 351 m 1xf2
 157 351 125 415 125 475 c 4
 125 546 169 601 250 601 c 4
 331 601 373 546 373 475 c 0
 373 415 343 351 250 351 c 1xf2
250 60 m 0
 175 60 136 108 136 173 c 0
 136 240 177 286 250 286 c 1
 323 286 366 240 366 173 c 0xec
 366 108 325 60 250 60 c 0
250 -6 m 0
 370 -6 436 71 436 174 c 0xec
 436 242 402 290 359 317 c 1
 408 346 445 402 445 475 c 0
 445 582 375 667 250 667 c 4
 125 667 55 582 55 475 c 4xf2
 55 402 92 346 141 317 c 1
 98 290 64 240 64 172 c 0
 64 69 130 -6 250 -6 c 0
EndSplineSet
EndChar
StartChar: ae
Encoding: 291 230 35
Width: 1000
VWidth: 0
Flags: H
LayerCount: 4
Back
Fore
Layer: 2
SplineSet
381 220 m 5
 381.015625 121.059570312 418.153320312 56 495 56 c 4
 534 56 571.9140625 66.51171875 609 92 c 5
 643 39 l 5
 598.334960938 6.9052734375 552 -6 495 -6 c 4
 376.771484375 -6 325 76.619140625 325 219 c 6
 325 258 l 6
 325 398.84765625 367.110351562 483 490 483 c 4
 612.819335938 483 665 398.75 665 258 c 6
 665 220 l 5
 381 220 l 5
598.83984375 280 m 5
 597.244140625 362.936523438 560.350585938 421 490 421 c 4
 419.681640625 421 382.755859375 362.915039062 381.16015625 280 c 5
 598.83984375 280 l 5
EndSplineSet
Layer: 3
SplineSet
218 483 m 4
 332.421875 483 373 395.651367188 373 258 c 6
 373 130 l 5
 315 130 l 5
 355 103 l 5
 332 22 255 -6 192 -6 c 4
 105 -6 45 53 45 143 c 4
 45 250 121 292 246 292 c 4
 268 292 291 291 317 287 c 5
 317 297 317 326 309 352 c 4
 291 407 244 421 218 421 c 4
 175 421 142 410 106 388 c 5
 73 442 l 5
 115 469 157 483 218 483 c 4
200 57 m 4
 276.379882812 57 317 111.322265625 317 210 c 6
 317 231 l 5
 291 234 275 235 254 235 c 4
 192 235 111 225 111 143 c 4
 111 94 140 57 200 57 c 4
EndSplineSet
EndChar
StartChar: eth
Encoding: 305 240 49
Width: 1000
VWidth: 0
Flags: H
LayerCount: 4
Back
Fore
Layer: 2
SplineSet
425 213 m 5
 425 184.631835938 424.692382812 153.03125 417.130859375 124 c 4
 396.170898438 43.53515625 335.008789062 -6 240 -6 c 4
 144.991210938 -6 83.8291015625 43.53515625 62.869140625 124 c 4
 55.3076171875 153.03125 55 184.631835938 55 213 c 4
 55 246.368164062 55.3076171875 273.96875 62.869140625 303 c 4
 83.8291015625 383.46484375 144.991210938 433 230 433 c 4
 287.716796875 433 328.447265625 414.578125 355 381.947265625 c 1029
240 367 m 4
 187.890625 367 153.165039062 343.235351562 136.499023438 303 c 4
 125.401367188 276.20703125 125 247.655273438 125 213 c 4
 125 183.344726562 125.401367188 150.79296875 136.499023438 124 c 4
 153.165039062 83.7646484375 187.890625 60 240 60 c 4
 291.67578125 60 326.259765625 83.3720703125 343.081054688 123 c 4
 354.802734375 150.615234375 355 182.897460938 355 213 c 4
 355 248.102539062 354.802734375 276.384765625 343.081054688 304 c 4
 326.259765625 343.627929688 291.67578125 367 240 367 c 4
EndSplineSet
Layer: 3
EndChar
StartChar: oslash
Encoding: 248 248 41
Width: 1000
VWidth: 0
Flags: H
LayerCount: 4
Back
SplineSet
387 507 m 5
 445 507 l 5
 103 -30 l 5
 45 -30 l 5
 387 507 l 5
EndSplineSet
Fore
Layer: 2
Layer: 3
EndChar
StartChar: dcroat
Encoding: 306 273 50
Width: 1000
VWidth: 0
Flags: H
LayerCount: 4
Back
SplineSet
225 593 m 5xf8
 505 593 l 5
 505 532 l 5
 225 532 l 5
 225 593 l 5xf8
240 483 m 4
 336 483 415 417 415 273 c 6
 415 204 l 6xfa
 415 61 337 -6 240 -6 c 4
 143 -6 55 61 55 204 c 6
 55 272 l 6
 55 416 143 483 240 483 c 4
250 417 m 4
 188 417 125 371 125 273 c 6
 125 204 l 6
 125 106 188 60 250 60 c 4
 312 60 375 106 375 204 c 6
 375 272 l 6xfc
 375 371 312 417 250 417 c 4
375 667 m 5
 443 667 l 5
 443 0 l 5xfc
 375 0 l 5xfa
 375 667 l 5
EndSplineSet
Fore
Layer: 2
Layer: 3
EndChar
StartChar: Lslash
Encoding: 321 321 51
Width: 1000
VWidth: 0
Flags: H
LayerCount: 4
Back
SplineSet
40 273 m 5
 360 433 l 5
 360 372 l 5
 40 212 l 5
 40 273 l 5
155 667 m 1
 229 667 l 1
 229 70 l 1
 535 70 l 1
 535 0 l 1
 155 0 l 1
 155 667 l 1
EndSplineSet
Fore
Layer: 2
Layer: 3
EndChar
StartChar: OE
Encoding: 301 338 45
Width: 1000
VWidth: 0
Flags: H
LayerCount: 4
Back
SplineSet
460 667 m 5xf8
 777 667 l 5
 777 597 l 5
 532 597 l 5
 532 378 l 5
 737 378 l 5
 737 308 l 5
 534 308 l 5
 532 70 l 5
 778 70 l 5
 777 0 l 5
 460 0 l 5
 460 667 l 5xf8
300 603 m 4
 210 603 139 563 139 446 c 6
 139 222 l 6
 139 104 210 64 300 64 c 4
 390 64 461 104 461 222 c 6
 461 446 l 6xf4
 461 563 390 603 300 603 c 4
300 673 m 4
 427 673 505 611 505 446 c 6
 505 222 l 6
 505 56 427 -6 300 -6 c 4
 173 -6 65 56 65 222 c 6
 65 446 l 6
 65 611 173 673 300 673 c 4
EndSplineSet
Fore
Layer: 2
Layer: 3
EndChar
StartChar: oe
Encoding: 290 339 34
Width: 1000
VWidth: 0
Flags: H
LayerCount: 4
Back
SplineSet
401 220 m 5
 401.015625 121.059570312 438.153320312 56 515 56 c 4
 554 56 591.9140625 66.51171875 629 92 c 5
 663 39 l 5
 618.334960938 6.9052734375 572 -6 515 -6 c 4
 396.771484375 -6 345 76.619140625 345 219 c 6
 345 258 l 6
 345 398.84765625 387.110351562 483 510 483 c 4
 632.819335938 483 685 398.75 685 258 c 6
 685 220 l 5
 401 220 l 5
618.83984375 280 m 5
 617.244140625 362.936523438 580.350585938 421 510 421 c 4
 439.681640625 421 402.755859375 362.915039062 401.16015625 280 c 5
 618.83984375 280 l 5
EndSplineSet
Fore
Layer: 2
SplineSet
55 288 m 4
 55 406 122 483 230 483 c 4
 328 483 395 406 395 288 c 4
 395 189 l 4
 395 71 328 -6 230 -6 c 4
 122 -6 55 71 55 189 c 4
 55 288 l 4
123 288 m 4
 123 366 164 419 230 419 c 4
 296 419 337 366 337 288 c 4
 337 189 l 4
 337 111 296 58 230 58 c 4
 164 58 123 111 123 189 c 4
 123 288 l 4
EndSplineSet
Layer: 3
EndChar
StartChar: ogonek
Encoding: 308 731 52
Width: 1000
Flags: H
LayerCount: 4
Back
SplineSet
158.744140625 47.4931640625 m 21
 122.120117188 0.6240234375 l 6
 70.3525390625 -65.6259765625 54.71484375 -125.296875 106.909179688 -163.149414062 c 4
 155.293945312 -198.23828125 197.479492188 -146.774414062 215.905273438 -120.046875 c 1037
EndSplineSet
Fore
Layer: 2
Layer: 3
EndChar
StartChar: tilde
Encoding: 299 732 43
Width: 1000
Flags: H
LayerCount: 4
Back
SplineSet
74.55859375 556.018554688 m 21
 74.55859375 636.01953125 159.37109375 657.696289062 196 604 c 4
 232.62890625 550.303710938 317.44140625 571.98046875 317.44140625 651.981445312 c 1028
EndSplineSet
Fore
Layer: 2
Layer: 3
EndChar
StartChar: alpha
Encoding: 945 945 54
Width: 1000
VWidth: 0
Flags: H
LayerCount: 4
Back
SplineSet
395 189 m 21
 395 71 348 -6 230 -6 c 4
 144.991210938 -6 83.8291015625 43.53515625 62.869140625 124 c 4
 55.3076171875 153.03125 55 180.631835938 55 219 c 6
 55 258 l 6
 55 296.368164062 55.3076171875 323.96875 62.869140625 353 c 4
 83.8291015625 433.46484375 144.991210938 483 230 483 c 4
 287.716796875 483 328.447265625 464.578125 355 431.947265625 c 5
 355 477 l 5
 425 477 l 5
 395 189 l 21
240 417 m 4
 187.890625 417 153.165039062 393.235351562 136.499023438 353 c 4
 125.401367188 326.20703125 125 297.655273438 125 258 c 6
 125 219 l 6
 125 179.344726562 125.401367188 150.79296875 136.499023438 124 c 4
 153.165039062 83.7646484375 187.890625 60 240 60 c 4
 291.67578125 60 326.259765625 83.3720703125 343.081054688 123 c 4
 354.802734375 150.615234375 355 178.897460938 355 219 c 6
 355 258 l 6
 355 298.102539062 354.802734375 326.384765625 343.081054688 354 c 4
 326.259765625 393.627929688 291.67578125 417 240 417 c 4
367 130 m 6xf2
 425 130 l 6xf8
 425 85 451 66 476 66 c 6
 486 66 l 5
 486 0 l 5
 476 0 l 6
 417 0 367 41 367 130 c 6xf2
357 477 m 5
 425 477 l 5
 425 100 l 5
 357 100 l 5
 357 477 l 5
EndSplineSet
Fore
Layer: 2
Layer: 3
SplineSet
395 189 m 21
 395 71 348 -6 230 -6 c 4
 144.991210938 -6 83.8291015625 43.53515625 62.869140625 124 c 4
 55.3076171875 153.03125 55 180.631835938 55 219 c 6
 55 258 l 6
 55 296.368164062 55.3076171875 323.96875 62.869140625 353 c 4
 83.8291015625 433.46484375 144.991210938 483 230 483 c 4
 287.716796875 483 328.447265625 464.578125 355 431.947265625 c 5
 355 477 l 5
 425 477 l 5
 395 189 l 21
240 417 m 4
 187.890625 417 153.165039062 393.235351562 136.499023438 353 c 4
 125.401367188 326.20703125 125 297.655273438 125 258 c 6
 125 219 l 6
 125 179.344726562 125.401367188 150.79296875 136.499023438 124 c 4
 153.165039062 83.7646484375 187.890625 60 240 60 c 4
 291.67578125 60 326.259765625 83.3720703125 343.081054688 123 c 4
 354.802734375 150.615234375 355 178.897460938 355 219 c 6
 355 258 l 6
 355 298.102539062 354.802734375 326.384765625 343.081054688 354 c 4
 326.259765625 393.627929688 291.67578125 417 240 417 c 4
EndSplineSet
EndChar
StartChar: uni20B9
Encoding: 332 8377 76
Width: 1000
VWidth: 0
Flags: H
LayerCount: 4
Back
SplineSet
63 450 m 5
 93 517 l 5
 493 517 l 5
 463 450 l 5
 63 450 l 5
63 600 m 5
 93 667 l 5
 493 667 l 5
 463 600 l 5
 63 600 l 5
81 325 m 5
 190 325 l 6
 259 325 319 371 319 462 c 4
 319 554 260 600 190 600 c 6
 121 600 l 5
 121 667 l 5
 150 667 l 6
 276 667 390 602 390 462 c 4
 390 323 295 258 190 258 c 6
 81 258 l 5
 81 325 l 5
173 277 m 5
 401 0 l 5
 314 0 l 5
 104 259 l 5
 173 277 l 5
EndSplineSet
Fore
Layer: 2
Layer: 3
EndChar
StartChar: infinity
Encoding: 8734 8734 39
Width: 1000
VWidth: 0
Flags: H
LayerCount: 4
Back
SplineSet
234 364 m 4
 184 364 142 315 142 255 c 4
 142 195 184 146 234 146 c 4
 284 146 314 195 344 255 c 5
 314 315 284 364 234 364 c 4
234 424 m 4
 303 424 339 378 376 312 c 5
 415 378 457 424 526 424 c 4
 614 424 670 349 670 255 c 4
 670 161 614 86 526 86 c 4
 457 86 415 132 376 198 c 5
 339 132 303 86 234 86 c 4
 146 86 80 161 80 255 c 4
 80 349 146 424 234 424 c 4
526 364 m 4
 476 364 440 315 406 255 c 5
 440 195 476 146 526 146 c 4
 576 146 608 195 608 255 c 4
 608 315 576 364 526 364 c 4
EndSplineSet
Fore
Layer: 2
Layer: 3
EndChar
StartChar: b.alt
Encoding: 316 57345 60
Width: 490
VWidth: 0
Flags: W
HStem: 0 66<135 318> 411 66<135 318> 647 20G<65 135>
VStem: 65 70<66 411 477 667> 365 70<112.828 364.172>
LayerCount: 4
Back
SplineSet
270 60 m 4
 332 60 395 106 395 204 c 6
 395 267 l 6
 395 365 332 411 270 411 c 6
 145 411 l 5
 145 205 l 6
 145 106 208 60 270 60 c 4
270 -6 m 4
 174 -6 75 60 75 204 c 6
 75 667 l 5
 145 667 l 5
 145 477 l 5
 270 477 l 6
 367 477 465 410 465 267 c 6
 465 205 l 6
 465 61 367 -6 270 -6 c 4
EndSplineSet
Fore
SplineSet
135 411 m 9
 135 66 l 25
 240 66 l 4
 302 66 346 94 360 149 c 4
 365 166 365 185 365 209 c 6
 365 268 l 6
 365 292 365 311 360 328 c 4
 346 383 302 411 240 411 c 4
 135 411 l 9
65 667 m 1
 135 667 l 1
 135 477 l 1
 179 477 191 477 250 477 c 4
 344 477 416 423 432 328 c 4
 435 310 435 292 435 268 c 6
 435 209 l 6
 435 185 435 167 432 149 c 4
 416 54 344 0 250 0 c 6
 65 0 l 1
 65 667 l 1
EndSplineSet
Validated: 1
Layer: 2
Layer: 3
EndChar
StartChar: c.alt
Encoding: 317 57346 61
Width: 393
VWidth: 0
Flags: W
HStem: 0 66<172 343> 411 66<172 338>
VStem: 55 70<112.828 364.172>
AnchorPoint: "DoubleTop" 0 0 basechar 0
AnchorPoint: "Apos" 0 0 basechar 0
AnchorPoint: "Center" 5 0 basechar 0
AnchorPoint: "Bottom" 250 0 basechar 0
AnchorPoint: "Top" 250 476 basechar 0
LayerCount: 4
Back
Fore
SplineSet
250 477 m 0
 304 477 308 477 338 477 c 1
 338 411 l 1
 312 411 286 411 250 411 c 0
 188 411 144 383 130 328 c 0
 125 311 125 292 125 268 c 0
 125 209 l 0
 125 185 125 166 130 149 c 0
 144 94 188 66 250 66 c 0
 289 66 314 66 343 66 c 1
 343 0 l 1
 310 0 307 0 250 0 c 0
 146 0 74 54 58 149 c 0
 55 167 55 185 55 209 c 0
 55 268 l 0
 55 292 55 310 58 328 c 0
 74 423 146 477 250 477 c 0
EndSplineSet
Validated: 1
Layer: 2
Layer: 3
EndChar
StartChar: d.alt
Encoding: 57347 57347 62
Width: 490
VWidth: 0
Flags: W
HStem: 0 66<172 355> 411 66<172 355> 647 20G<355 425>
VStem: 55 70<112.828 364.172> 355 70<66 411 477 667>
LayerCount: 4
Back
SplineSet
230 60 m 4
 168 60 105 106 105 204 c 6
 105 267 l 6
 105 365 168 411 230 411 c 6
 355 411 l 5
 355 205 l 6
 355 106 292 60 230 60 c 4
230 -6 m 4
 326 -6 425 60 425 204 c 6
 425 667 l 5
 355 667 l 5
 355 477 l 5
 230 477 l 6
 133 477 35 410 35 267 c 6
 35 205 l 6
 35 61 133 -6 230 -6 c 4
EndSplineSet
Fore
SplineSet
355 411 m 21
 250 411 l 4
 188 411 144 383 130 328 c 4
 125 311 125 292 125 268 c 6
 125 209 l 6
 125 185 125 166 130 149 c 4
 144 94 188 66 250 66 c 4
 355 66 l 29
 355 411 l 21
425 667 m 5
 425 0 l 5
 240 0 l 6
 146 0 74 54 58 149 c 4
 55 167 55 185 55 209 c 6
 55 268 l 6
 55 292 55 310 58 328 c 4
 74 423 146 477 240 477 c 4
 299 477 311 477 355 477 c 5
 355 667 l 5
 425 667 l 5
EndSplineSet
Validated: 1
Layer: 2
Layer: 3
EndChar
StartChar: e.alt
Encoding: 319 57348 63
Width: 490
VWidth: 0
Flags: W
HStem: 0 64<172.5 405> 218 64<123 367> 419 64<175.262 314.738>
VStem: 55 68<114.461 218 282 365.844> 367 68<282 365.844>
AnchorPoint: "DoubleTop" 0 0 basechar 0
AnchorPoint: "Apos" 0 0 basechar 0
AnchorPoint: "Center" 5 0 basechar 0
AnchorPoint: "Bottom" 257 0 basechar 0
AnchorPoint: "Top" 245 477 basechar 0
LayerCount: 4
Back
Fore
SplineSet
245 483 m 0
 344 483 416 423 432 328 c 0
 435 310 435 292 435 268 c 2
 435 218 l 1
 123 218 l 1
 123 209 l 2
 123 185 123 166 128 149 c 0
 143 91 191 64 250 64 c 0
 299 64 405 64 405 64 c 1
 405 0 l 1
 405 0 317 0 250 0 c 0
 149 0 74 51 58 149 c 0
 55 167 55 185 55 209 c 2
 55 268 l 2
 55 292 55 310 58 328 c 0
 74 423 146 483 245 483 c 0
123 282 m 1
 367 282 l 1
 367 300 366 314 362 328 c 0
 348 384 302 419 245 419 c 0
 188 419 142 384 128 328 c 0
 124 314 123 300 123 282 c 1
EndSplineSet
Validated: 1
Layer: 2
Layer: 3
EndChar
StartChar: m.alt
Encoding: 57360 57360 68
Width: 748
VWidth: 0
Flags: W
HStem: 0 21G<75 145 345 413 613 683> 411 66<145 345 413 570.543>
VStem: 75 70<0 411> 345 68<0 411> 613 70<0 367.277>
CounterMasks: 1 38
LayerCount: 4
Back
Fore
SplineSet
511 477 m 0
 607 477 683 401 683 297 c 2
 683 0 l 1
 613 0 l 1
 613 296 l 2
 613 355 575 411 513 411 c 2
 413 411 l 1
 413 272 413 139 413 0 c 1
 345 0 l 1
 345 411 l 1
 145 411 l 1
 145 272 145 139 145 0 c 1
 75 0 l 1
 75 477 l 1
 220 477 366 477 511 477 c 0
EndSplineSet
Validated: 1
Layer: 2
Layer: 3
EndChar
StartChar: C.alt
Encoding: 333 57368 77
Width: 521
VWidth: 0
Flags: W
HStem: 0 70<205.484 451> 597 70<205.484 441>
VStem: 65 74<135.695 528.141>
LayerCount: 4
Back
Fore
SplineSet
290 0 m 0
 173 0 65 62 65 228 c 2
 65 440 l 2
 65 605 173 667 290 667 c 0
 329 667 441 667 441 667 c 1
 441 597 l 1
 441 597 324 597 290 597 c 0
 210 597 139 557 139 440 c 2
 139 228 l 2
 139 110 210 70 290 70 c 0
 329 70 451 70 451 70 c 1
 451 0 l 1
 451 0 324 0 290 0 c 0
EndSplineSet
Validated: 1
Layer: 2
Layer: 3
EndChar
StartChar: G.alt
Encoding: 334 57369 78
Width: 529
VWidth: 0
Flags: W
HStem: -6 70<204.775 375.225> 287 70<303 441> 597 70<205.484 441>
VStem: 65 74<129.695 528.141> 441 74<129.695 287>
LayerCount: 4
Back
Fore
SplineSet
290 667 m 0
 329 667 441 667 441 667 c 1
 441 597 l 1
 441 597 324 597 290 597 c 0
 210 597 139 557 139 440 c 2
 139 222 l 2
 139 104 210 64 290 64 c 0
 370 64 441 104 441 222 c 1
 441 287 l 1
 303 287 l 1
 303 357 l 1
 515 357 l 1
 515 222 l 2
 515 56 407 -6 290 -6 c 0
 173 -6 65 56 65 222 c 2
 65 440 l 2
 65 605 173 667 290 667 c 0
EndSplineSet
Validated: 1
Layer: 2
Layer: 3
EndChar
StartChar: J.alt
Encoding: 335 57370 79
Width: 471
VWidth: 0
Flags: W
HStem: -6 70<70 263.406> 647 20G<312 386>
VStem: 312 74<118.264 667>
LayerCount: 4
Back
Fore
SplineSet
201 -6 m 0
 167 -6 70 -6 70 -6 c 1
 70 64 l 1
 70 64 162 64 201 64 c 0
 253 64 312 107 312 200 c 2
 312 667 l 1
 386 667 l 1
 386 200 l 2
 386 59 290 -6 201 -6 c 0
EndSplineSet
Validated: 1
Layer: 2
Layer: 3
EndChar
StartChar: uniE01D
Encoding: 57373 57373 82
Width: 500
VWidth: 0
Flags: HW
HStem: 94 390<152.485 347.515>
VStem: 55 390<191.485 386.515>
LayerCount: 4
Back
Fore
SplineSet
55 289 m 4
 55 407 132 484 250 484 c 4
 368 484 445 407 445 289 c 4
 445 171 368 94 250 94 c 4
 132 94 55 171 55 289 c 4
EndSplineSet
Layer: 2
Layer: 3
EndChar
StartChar: uniE01E
Encoding: 339 57374 83
Width: 580
VWidth: 0
Flags: W
HStem: -6 450<177.998 402.002>
VStem: 65 450<106.998 331.002>
LayerCount: 4
Back
Fore
SplineSet
65 219 m 4
 65 365 144 444 290 444 c 4
 436 444 515 365 515 219 c 4
 515 73 436 -6 290 -6 c 4
 144 -6 65 73 65 219 c 4
EndSplineSet
Layer: 2
Layer: 3
EndChar
StartChar: uniE01F
Encoding: 340 57375 84
Width: 370
VWidth: 0
Flags: W
HStem: -6 66<204.071 286.302> 169 66<203.735 286.65> 331 422<79.1943 280.806>
VStem: -15 390<429.444 654.556> 125 70<69.5925 159.994> 296 70<69.9441 159.653>
LayerCount: 4
Back
Fore
SplineSet
375 542 m 4xf0
 375 696 287 753 180 753 c 4
 73 753 -15 696 -15 542 c 4
 -15 388 73 331 180 331 c 4
 287 331 375 388 375 542 c 4xf0
195 115 m 0xec
 195 83 215 60 245 60 c 0
 275 60 296 83 296 115 c 0
 296 147 275 169 245 169 c 0
 215 169 195 147 195 115 c 0xec
125 115 m 0
 125 188 172 235 245 235 c 0
 318 235 366 188 366 115 c 0
 366 42 318 -6 245 -6 c 0
 172 -6 125 42 125 115 c 0
EndSplineSet
Layer: 2
Layer: 3
EndChar
